<svg width="78" height="71" viewBox="0 0 78 71" fill="none" xmlns="http://www.w3.org/2000/svg">
<line x1="10.9919" y1="8.31582" x2="66.4726" y2="63.7965" stroke="white" stroke-width="1.5"/>
<line x1="65.915" y1="8.06879" x2="10.4343" y2="63.5495" stroke="white" stroke-width="1.5"/>
<path d="M39.8639 59.4585C35.3279 59.4585 33.3359 56.2905 33.3359 53.6265C33.3359 50.9865 35.3279 47.8185 39.8639 47.8185C42.1679 47.8185 43.7519 49.0425 43.7519 49.0425L45.6719 45.2025C45.6719 45.2025 43.4639 43.3785 39.1679 43.3785C33.5519 43.3785 28.4399 47.9865 28.4399 53.6745C28.4399 59.3385 33.5759 63.8985 39.1679 63.8985C43.4639 63.8985 45.6719 62.0745 45.6719 62.0745L43.7519 58.2345C43.7519 58.2345 42.1679 59.4585 39.8639 59.4585Z" fill="white"/>
<path d="M20.3935 23.8154H16.2175L8.22554 43.6154H13.0735L14.5375 39.6554H22.0735L23.5375 43.6154H28.3855L20.3935 23.8154ZM20.5375 35.6954H16.0735L18.2815 29.9354H18.3295L20.5375 35.6954Z" fill="#FF5B24"/>
<path d="M54.884 32.3274H54.932L62.804 44.6154H67.316V24.8154H62.804V37.1034H62.756L54.884 24.8154H50.372V44.6154H54.884V32.3274Z" fill="#FF5B24"/>
<path d="M32.7808 25.152C32.7808 25.152 33.8368 24.048 35.7088 24.048C38.7568 24.048 39.9808 25.92 42.9328 25.92C46.0768 25.92 47.3488 23.232 47.3488 23.232L45.9328 20.184C45.9328 20.184 44.9968 21.48 42.9568 21.48C41.7808 21.48 40.3408 21.024 39.8848 21.024V20.928C43.9888 19.68 46.7728 15.816 46.7728 11.088C46.7728 5.304 42.4288 0.839999 36.9328 0.839999C31.4848 0.839999 27.0688 5.304 27.0688 11.088C27.0688 16.176 30.1648 20.256 34.8688 21.168V21.264C33.4288 21.264 31.7008 23.52 31.7008 23.52L32.7808 25.152ZM31.9408 11.088C31.9408 8.136 33.4528 5.376 36.9328 5.376C40.4368 5.376 41.9008 8.136 41.9008 11.088C41.9008 14.04 40.5328 16.8 36.9328 16.8C33.2368 16.8 31.9408 14.04 31.9408 11.088Z" fill="white"/>
</svg>
